{"title":"Toy Story 3 2010 720p TC H264 FEEL-FREE","uid":5724597,"size":2086564974,"categoryP":"other","categoryS":"other","magnet":"?xt=urn:btih:9a57fcaf62da664fd8b5c671bbf759028a21f286&amp;dn=Toy+Story+3+2010+720p+TC+H264+FEEL-FREE&amp;tr=udp%3A%2F%2Ftracker.openbittorrent.com%3A80&amp;tr=udp%3A%2F%2Fopen.demonii.com%3A1337&amp;tr=udp%3A%2F%2Ftracker.coppersurfer.tk%3A6969&amp;tr=udp%3A%2F%2Fexodus.desync.com%3A6969","seeders":0,"leechers":1,"uploader":"xenl","files":9,"time":1280415359,"description":"Toy Story 3 2010 720p TC H264 FEEL-FREE\n\nGenre:Animation | Adventure | Comedy | Family | Fantasy\nLanguage:English\nIMDb:http://www.imdb.com/title/tt0435761/\nSource:TC.720p.x264-CiRiTH\nSample:yes\nSubtitles: ROMANA\n............................................\nGeneral\nComplete name : Toy Story 3 2010 720p TC H264 FEEL-FREE\nFormat : MPEG-4\nFormat profile : Base Media\nCodec ID : isom\nFile size : 1.91 GiB\nDuration : 1h 41mn\nOverall bit rate : 2 688 Kbps\n.............................................\nVideo\nID : 2\nFormat : AVC\nFormat/Info : Advanced Video Codec\nFormat profile : &lt;a class=&quot;__cf_email__&quot; href=&quot;/cdn-cgi/l/email-protection&quot; data-cfemail=&quot;5f1d3e2c3a3336313a1f136e716c&quot;&gt;[email&amp;#160;protected]&lt;/a&gt;&lt;script cf-hash='f9e31' type=&quot;text/javascript&quot;&gt;\n/* &lt;![CDATA[ */!function(){try{var t=&quot;currentScript&quot;in document?document.currentScript:function(){for(var t=document.getElementsByTagName(&quot;script&quot;),e=t.length;e--;)if(t[e].getAttribute(&quot;cf-hash&quot;))return t[e]}();if(t&amp;&amp;t.previousSibling){var e,r,n,i,c=t.previousSibling,a=c.getAttribute(&quot;data-cfemail&quot;);if(a){for(e=&quot;&quot;,r=parseInt(a.substr(0,2),16),n=2;a.length-n;n+=2)i=parseInt(a.substr(n,2),16)^r,e+=String.fromCharCode(i);e=document.createTextNode(e),c.parentNode.replaceChild(e,c)}}}catch(u){}}();/* ]]&gt; */&lt;/script&gt;\nFormat settings, CABAC : No\nFormat settings, ReFrames : 1 frame\nCodec ID : avc1\nCodec ID/Info : Advanced Video Coding\nDuration : 1h 41mn\nBit rate mode : Variable\nBit rate : 2 541 Kbps\nWidth : 1 280 pixels\nHeight : 552 pixels\nDisplay aspect ratio : 2.35:1\nFrame rate mode : Constant\nFrame rate : 29.970 fps\nResolution : 24 bits\nColorimetry : 4:2:0\nScan type : Progressive\nBits/(Pixel*Frame) : 0.120\nStream size : 1.81 GiB (95%)\nLanguage : English\n..............................................\nAudio\nID : 1\nFormat : AAC\nFormat/Info : Advanced Audio Codec\nFormat version : Version 4\nFormat profile : LC\nFormat settings, SBR : No\nCodec ID : 40\nDuration : 1h 41mn\nBit rate mode : Constant\nBit rate : 141 Kbps\nChannel(s) : 2 channels\nChannel positions : L R\nSampling rate : 44.1 KHz\nResolution : 16 bits\nStream size : 103 MiB (5%)\nLanguage : English\n...............................................\nPlot:\nThe toys are mistakenly delivered to a day-care center instead of the attic right before Andy leaves for college, and it's up to Woody to convince the other toys that they weren't abandoned and to return home","torrent":{"xt":"urn:btih:9a57fcaf62da664fd8b5c671bbf759028a21f286","amp;dn":"Toy+Story+3+2010+720p+TC+H264+FEEL-FREE","amp;tr":["udp%3A%2F%2Ftracker.openbittorrent.com%3A80","udp%3A%2F%2Fopen.demonii.com%3A1337","udp%3A%2F%2Ftracker.coppersurfer.tk%3A6969","udp%3A%2F%2Fexodus.desync.com%3A6969"],"infoHash":"9a57fcaf62da664fd8b5c671bbf759028a21f286","infoHashBuffer":{"type":"Buffer","data":[154,87,252,175,98,218,102,79,216,181,198,113,187,247,89,2,138,33,242,134]},"announce":[],"urlList":[]}}